<svg width="40" height="40" viewBox="0 0 40 40" fill="none" xmlns="http://www.w3.org/2000/svg">
<mask id="mask0_255_63" style="mask-type:alpha" maskUnits="userSpaceOnUse" x="0" y="0" width="40" height="40">
<rect width="40" height="40" fill="#D9D9D9"/>
</mask>
<g mask="url(#mask0_255_63)">
<path d="M33.2637 35.6946L22.4028 24.8333C21.5509 25.5278 20.5351 26.0671 19.3553 26.4512C18.1753 26.8357 16.9637 27.0279 15.7203 27.0279C12.4965 27.0279 9.78103 25.9238 7.57409 23.7154C5.36714 21.5071 4.26367 18.8149 4.26367 15.6388C4.26367 12.4629 5.36784 9.77083 7.57617 7.5625C9.78451 5.35417 12.4767 4.25 15.6528 4.25C18.8287 4.25 21.5208 5.35417 23.7291 7.5625C25.9374 9.77083 27.0416 12.4643 27.0416 15.6429C27.0416 16.8718 26.8587 18.051 26.4928 19.1804C26.1273 20.3101 25.5741 21.3565 24.8333 22.3196L35.7637 33.1946L33.2637 35.6946ZM15.6666 23.5279C17.8749 23.5279 19.7395 22.7636 21.2603 21.235C22.7812 19.7064 23.5416 17.841 23.5416 15.6388C23.5416 13.4368 22.782 11.5715 21.2628 10.0429C19.7437 8.51431 17.8791 7.75 15.6691 7.75C13.4435 7.75 11.5696 8.51431 10.0474 10.0429C8.52492 11.5715 7.76367 13.4368 7.76367 15.6388C7.76367 17.841 8.52492 19.7064 10.0474 21.235C11.5696 22.7636 13.4427 23.5279 15.6666 23.5279Z" fill="#FFF7F3"/>
</g>
</svg>
